# xmcd
#
# Track frame offsets: 
#        150
#        20777
#        42581
#        66399
#        86196
#        105328
#        123360
#        142519
#        163031
#        182109
#        205059
#        220269
#        241177
#
# Disc length: 3443 seconds
#
# Revision: 6
# Processed by: cddbd v1.5.2PL0 Copyright (c) Steve Scherf et al.
# Submitted via: ExactAudioCopy v0.99pb5
#
DISCID=b60d710d
DTITLE=?曼 - 蘇曼的夜晚 [AQCD]
DYEAR=2006
DGENRE=Chinese
TTITLE0=在路上
TTITLE1=水鄉
TTITLE2=夜晚
TTITLE3=別亦難
TTITLE4=寒雨曲
TTITLE5=把月光射下來
TTITLE6=雪紅蓮
TTITLE7=偶然
TTITLE8=藍色
TTITLE9=偶遇
TTITLE10=今宵多珍重
TTITLE11=被遺忘的時光
TTITLE12=突然的自我 (Bonus Track)
EXTD=YEAR: 2006
EXTT0=
EXTT1=
EXTT2=
EXTT3=
EXTT4=
EXTT5=
EXTT6=
EXTT7=
EXTT8=
EXTT9=
EXTT10=
EXTT11=
EXTT12=
PLAYORDER=
